<svg xmlns="http://www.w3.org/2000/svg" width="4455pt" height="396pt" viewBox="-1 -1 4454 395">
<g id="graph0" class="graph" style="font-family:Times-Roman;font-size:14.00;">
<title>G</title>
<g id="node1" class="node"><title>node1</title>
<ellipse cx="89" cy="22" rx="60" ry="18" style="fill:none;stroke:black;"></ellipse>
<text text-anchor="middle" x="89" y="27">Acanthinevania</text>
</g>
<g id="node32" class="node"><title>node32</title>
<ellipse cx="89" cy="232" rx="84" ry="84" style="fill:yellow;stroke:black;"></ellipse>
<g transform="translate(89,232)">   <circle cx="0" cy="0" r="10"></circle>
   <circle cx="10" cy="-17.320508075689" r="10"></circle>
   <circle cx="-10" cy="-17.320508075689" r="10"></circle>
   <circle cx="-20" cy="0" r="10"></circle>
   <circle cx="-10" cy="17.320508075689" r="10"></circle>
   <circle cx="10" cy="17.320508075689" r="10"></circle>
   <circle cx="20" cy="0" r="10"></circle>
   <circle cx="30" cy="-17.320508075689" r="10"></circle>
   <circle cx="20" cy="-34.641016151378" r="10"></circle>
   <circle cx="0" cy="-34.641016151378" r="10"></circle>
   <circle cx="-20" cy="-34.641016151378" r="10"></circle>
   <circle cx="-30" cy="-17.320508075689" r="10"></circle>
   <circle cx="-40" cy="0" r="10"></circle>
   <circle cx="-30" cy="17.320508075689" r="10"></circle>
   <circle cx="-20" cy="34.641016151378" r="10"></circle>
   <circle cx="0" cy="34.641016151378" r="10"></circle>
   <circle cx="20" cy="34.641016151378" r="10"></circle>
   <circle cx="30" cy="17.320508075689" r="10"></circle>
   <circle cx="40" cy="0" r="10"></circle>
   <circle cx="50" cy="-17.320508075689" r="10"></circle>
   <circle cx="40" cy="-34.641016151378" r="10"></circle>
</g></g>
<g id="edge2" class="edge"><title>node1--node32</title>
<path style="fill:none;stroke:black;" d="M89,40C89,64 89,108 89,148"></path>
</g>
<g id="node2" class="node"><title>node2</title>
<ellipse cx="251" cy="22" rx="49" ry="18" style="fill:none;stroke:black;"></ellipse>
<text text-anchor="middle" x="251" y="27">Brachygaster</text>
</g>
<g id="node33" class="node"><title>node33</title>
<ellipse cx="251" cy="232" rx="60" ry="60" style="fill:yellow;stroke:black;"></ellipse>
<g transform="translate(251,232)">   <circle cx="0" cy="0" r="10"></circle>
   <circle cx="10" cy="-17.320508075689" r="10"></circle>
   <circle cx="-10" cy="-17.320508075689" r="10"></circle>
   <circle cx="-20" cy="0" r="10"></circle>
   <circle cx="-10" cy="17.320508075689" r="10"></circle>
   <circle cx="10" cy="17.320508075689" r="10"></circle>
   <circle cx="20" cy="0" r="10"></circle>
   <circle cx="30" cy="-17.320508075689" r="10"></circle>
   <circle cx="20" cy="-34.641016151378" r="10"></circle>
   <circle cx="0" cy="-34.641016151378" r="10"></circle>
   <circle cx="-20" cy="-34.641016151378" r="10"></circle>
</g></g>
<g id="edge4" class="edge"><title>node2--node33</title>
<path style="fill:none;stroke:black;" d="M251,40C251,69 251,127 251,172"></path>
</g>
<g id="node3" class="node"><title>node3</title>
<ellipse cx="365" cy="22" rx="42" ry="18" style="fill:none;stroke:black;"></ellipse>
<text text-anchor="middle" x="365" y="27">Decevania</text>
</g>
<g id="node34" class="node"><title>node34</title>
<ellipse cx="365" cy="232" rx="36" ry="36" style="fill:yellow;stroke:black;"></ellipse>
<g transform="translate(365,232)">   <circle cx="0" cy="0" r="10"></circle>
   <circle cx="10" cy="-17.320508075689" r="10"></circle>
</g></g>
<g id="edge6" class="edge"><title>node3--node34</title>
<path style="fill:none;stroke:black;" d="M365,40C365,75 365,150 365,196"></path>
</g>
<g id="node4" class="node"><title>node4</title>
<ellipse cx="464" cy="22" rx="39" ry="18" style="fill:none;stroke:black;"></ellipse>
<text text-anchor="middle" x="464" y="27">Eoevania</text>
</g>
<g id="node35" class="node"><title>node35</title>
<ellipse cx="464" cy="232" rx="36" ry="36" style="fill:yellow;stroke:black;"></ellipse>
<g transform="translate(464,232)">   <circle cx="0" cy="0" r="10"></circle>
</g></g>
<g id="edge8" class="edge"><title>node4--node35</title>
<path style="fill:none;stroke:black;" d="M464,40C464,75 464,150 464,196"></path>
</g>
<g id="node5" class="node"><title>node5</title>
<ellipse cx="650" cy="22" rx="38" ry="18" style="fill:none;stroke:black;"></ellipse>
<text text-anchor="middle" x="650" y="27">Evaniella</text>
</g>
<g id="node36" class="node"><title>node36</title>
<ellipse cx="650" cy="232" rx="132" ry="132" style="fill:yellow;stroke:black;"></ellipse>
<g transform="translate(650,232)">   <circle cx="0" cy="0" r="10"></circle>
   <circle cx="10" cy="-17.320508075689" r="10"></circle>
   <circle cx="-10" cy="-17.320508075689" r="10"></circle>
   <circle cx="-20" cy="0" r="10"></circle>
   <circle cx="-10" cy="17.320508075689" r="10"></circle>
   <circle cx="10" cy="17.320508075689" r="10"></circle>
   <circle cx="20" cy="0" r="10"></circle>
   <circle cx="30" cy="-17.320508075689" r="10"></circle>
   <circle cx="20" cy="-34.641016151378" r="10"></circle>
   <circle cx="0" cy="-34.641016151378" r="10"></circle>
   <circle cx="-20" cy="-34.641016151378" r="10"></circle>
   <circle cx="-30" cy="-17.320508075689" r="10"></circle>
   <circle cx="-40" cy="0" r="10"></circle>
   <circle cx="-30" cy="17.320508075689" r="10"></circle>
   <circle cx="-20" cy="34.641016151378" r="10"></circle>
   <circle cx="0" cy="34.641016151378" r="10"></circle>
   <circle cx="20" cy="34.641016151378" r="10"></circle>
   <circle cx="30" cy="17.320508075689" r="10"></circle>
   <circle cx="40" cy="0" r="10"></circle>
   <circle cx="50" cy="-17.320508075689" r="10"></circle>
   <circle cx="40" cy="-34.641016151378" r="10"></circle>
   <circle cx="30" cy="-51.961524227066" r="10"></circle>
   <circle cx="10" cy="-51.961524227066" r="10"></circle>
   <circle cx="-10" cy="-51.961524227066" r="10"></circle>
   <circle cx="-30" cy="-51.961524227066" r="10"></circle>
   <circle cx="-40" cy="-34.641016151378" r="10"></circle>
   <circle cx="-50" cy="-17.320508075689" r="10"></circle>
   <circle cx="-60" cy="0" r="10"></circle>
   <circle cx="-50" cy="17.320508075689" r="10"></circle>
   <circle cx="-40" cy="34.641016151378" r="10"></circle>
   <circle cx="-30" cy="51.961524227066" r="10"></circle>
   <circle cx="-10" cy="51.961524227066" r="10"></circle>
   <circle cx="10" cy="51.961524227066" r="10"></circle>
   <circle cx="30" cy="51.961524227066" r="10"></circle>
   <circle cx="40" cy="34.641016151378" r="10"></circle>
   <circle cx="50" cy="17.320508075689" r="10"></circle>
   <circle cx="60" cy="0" r="10"></circle>
   <circle cx="70" cy="-17.320508075689" r="10"></circle>
   <circle cx="60" cy="-34.641016151378" r="10"></circle>
   <circle cx="50" cy="-51.961524227066" r="10"></circle>
   <circle cx="40" cy="-69.282032302755" r="10"></circle>
   <circle cx="20" cy="-69.282032302755" r="10"></circle>
   <circle cx="0" cy="-69.282032302755" r="10"></circle>
   <circle cx="-20" cy="-69.282032302755" r="10"></circle>
   <circle cx="-40" cy="-69.282032302755" r="10"></circle>
   <circle cx="-50" cy="-51.961524227066" r="10"></circle>
   <circle cx="-60" cy="-34.641016151378" r="10"></circle>
   <circle cx="-70" cy="-17.320508075689" r="10"></circle>
   <circle cx="-80" cy="0" r="10"></circle>
   <circle cx="-70" cy="17.320508075689" r="10"></circle>
   <circle cx="-60" cy="34.641016151378" r="10"></circle>
   <circle cx="-50" cy="51.961524227066" r="10"></circle>
   <circle cx="-40" cy="69.282032302755" r="10"></circle>
   <circle cx="-20" cy="69.282032302755" r="10"></circle>
   <circle cx="0" cy="69.282032302755" r="10"></circle>
   <circle cx="20" cy="69.282032302755" r="10"></circle>
   <circle cx="40" cy="69.282032302755" r="10"></circle>
   <circle cx="50" cy="51.961524227066" r="10"></circle>
   <circle cx="60" cy="34.641016151378" r="10"></circle>
   <circle cx="70" cy="17.320508075689" r="10"></circle>
   <circle cx="80" cy="0" r="10"></circle>
   <circle cx="90" cy="-17.320508075689" r="10"></circle>
   <circle cx="80" cy="-34.641016151378" r="10"></circle>
   <circle cx="70" cy="-51.961524227066" r="10"></circle>
   <circle cx="60" cy="-69.282032302755" r="10"></circle>
   <circle cx="50" cy="-86.602540378444" r="10"></circle>
   <circle cx="30" cy="-86.602540378444" r="10"></circle>
   <circle cx="10" cy="-86.602540378444" r="10"></circle>
   <circle cx="-10" cy="-86.602540378444" r="10"></circle>
   <circle cx="-30" cy="-86.602540378444" r="10"></circle>
   <circle cx="-50" cy="-86.602540378444" r="10"></circle>
   <circle cx="-60" cy="-69.282032302755" r="10"></circle>
   <circle cx="-70" cy="-51.961524227066" r="10"></circle>
   <circle cx="-80" cy="-34.641016151378" r="10"></circle>
   <circle cx="-90" cy="-17.320508075689" r="10"></circle>
   <circle cx="-100" cy="0" r="10"></circle>
</g></g>
<g id="edge10" class="edge"><title>node5--node36</title>
<path style="fill:none;stroke:black;" d="M650,40C650,54 650,76 650,100"></path>
</g>
<g id="node6" class="node"><title>node6</title>
<ellipse cx="884" cy="22" rx="40" ry="18" style="fill:none;stroke:black;"></ellipse>
<text text-anchor="middle" x="884" y="27">Parevania</text>
</g>
<g id="node37" class="node"><title>node37</title>
<ellipse cx="884" cy="232" rx="84" ry="84" style="fill:yellow;stroke:black;"></ellipse>
<g transform="translate(884,232)">   <circle cx="0" cy="0" r="10"></circle>
   <circle cx="10" cy="-17.320508075689" r="10"></circle>
   <circle cx="-10" cy="-17.320508075689" r="10"></circle>
   <circle cx="-20" cy="0" r="10"></circle>
   <circle cx="-10" cy="17.320508075689" r="10"></circle>
   <circle cx="10" cy="17.320508075689" r="10"></circle>
   <circle cx="20" cy="0" r="10"></circle>
   <circle cx="30" cy="-17.320508075689" r="10"></circle>
   <circle cx="20" cy="-34.641016151378" r="10"></circle>
   <circle cx="0" cy="-34.641016151378" r="10"></circle>
   <circle cx="-20" cy="-34.641016151378" r="10"></circle>
   <circle cx="-30" cy="-17.320508075689" r="10"></circle>
   <circle cx="-40" cy="0" r="10"></circle>
   <circle cx="-30" cy="17.320508075689" r="10"></circle>
   <circle cx="-20" cy="34.641016151378" r="10"></circle>
   <circle cx="0" cy="34.641016151378" r="10"></circle>
   <circle cx="20" cy="34.641016151378" r="10"></circle>
   <circle cx="30" cy="17.320508075689" r="10"></circle>
   <circle cx="40" cy="0" r="10"></circle>
   <circle cx="50" cy="-17.320508075689" r="10"></circle>
   <circle cx="40" cy="-34.641016151378" r="10"></circle>
   <circle cx="30" cy="-51.961524227066" r="10"></circle>
   <circle cx="10" cy="-51.961524227066" r="10"></circle>
   <circle cx="-10" cy="-51.961524227066" r="10"></circle>
   <circle cx="-30" cy="-51.961524227066" r="10"></circle>
   <circle cx="-40" cy="-34.641016151378" r="10"></circle>
   <circle cx="-50" cy="-17.320508075689" r="10"></circle>
</g></g>
<g id="edge12" class="edge"><title>node6--node37</title>
<path style="fill:none;stroke:black;" d="M884,40C884,64 884,108 884,148"></path>
</g>
<g id="node7" class="node"><title>node7</title>
<ellipse cx="1022" cy="22" rx="54" ry="18" style="fill:none;stroke:black;"></ellipse>
<text text-anchor="middle" x="1022" y="27">Protoparevania</text>
</g>
<g id="node38" class="node"><title>node38</title>
<ellipse cx="1022" cy="232" rx="36" ry="36" style="fill:yellow;stroke:black;"></ellipse>
<g transform="translate(1022,232)">   <circle cx="0" cy="0" r="10"></circle>
</g></g>
<g id="edge14" class="edge"><title>node7--node38</title>
<path style="fill:none;stroke:black;" d="M1022,40C1022,75 1022,150 1022,196"></path>
</g>
<g id="node8" class="node"><title>node8</title>
<ellipse cx="1138" cy="22" rx="42" ry="18" style="fill:none;stroke:black;"></ellipse>
<text text-anchor="middle" x="1138" y="27">Cretevania</text>
</g>
<g id="node39" class="node"><title>node39</title>
<ellipse cx="1138" cy="232" rx="36" ry="36" style="fill:yellow;stroke:black;"></ellipse>
<g transform="translate(1138,232)">   <circle cx="0" cy="0" r="10"></circle>
   <circle cx="10" cy="-17.320508075689" r="10"></circle>
   <circle cx="-10" cy="-17.320508075689" r="10"></circle>
   <circle cx="-20" cy="0" r="10"></circle>
</g></g>
<g id="edge16" class="edge"><title>node8--node39</title>
<path style="fill:none;stroke:black;" d="M1138,40C1138,75 1138,150 1138,196"></path>
</g>
<g id="node9" class="node"><title>node9</title>
<ellipse cx="1252" cy="22" rx="52" ry="18" style="fill:none;stroke:black;"></ellipse>
<text text-anchor="middle" x="1252" y="27">Grimaldivania</text>
</g>
<g id="node40" class="node"><title>node40</title>
<ellipse cx="1252" cy="232" rx="36" ry="36" style="fill:yellow;stroke:black;"></ellipse>
<g transform="translate(1252,232)">   <circle cx="0" cy="0" r="10"></circle>
</g></g>
<g id="edge18" class="edge"><title>node9--node40</title>
<path style="fill:none;stroke:black;" d="M1252,40C1252,75 1252,150 1252,196"></path>
</g>
<g id="node10" class="node"><title>node10</title>
<ellipse cx="1445" cy="22" rx="32" ry="18" style="fill:none;stroke:black;"></ellipse>
<text text-anchor="middle" x="1445" y="27">Hyptia</text>
</g>
<g id="node41" class="node"><title>node41</title>
<ellipse cx="1414" cy="232" rx="108" ry="108" style="fill:yellow;stroke:black;"></ellipse>
<g transform="translate(1414,232)">   <circle cx="0" cy="0" r="10"></circle>
   <circle cx="10" cy="-17.320508075689" r="10"></circle>
   <circle cx="-10" cy="-17.320508075689" r="10"></circle>
   <circle cx="-20" cy="0" r="10"></circle>
   <circle cx="-10" cy="17.320508075689" r="10"></circle>
   <circle cx="10" cy="17.320508075689" r="10"></circle>
   <circle cx="20" cy="0" r="10"></circle>
   <circle cx="30" cy="-17.320508075689" r="10"></circle>
   <circle cx="20" cy="-34.641016151378" r="10"></circle>
   <circle cx="0" cy="-34.641016151378" r="10"></circle>
   <circle cx="-20" cy="-34.641016151378" r="10"></circle>
   <circle cx="-30" cy="-17.320508075689" r="10"></circle>
   <circle cx="-40" cy="0" r="10"></circle>
   <circle cx="-30" cy="17.320508075689" r="10"></circle>
   <circle cx="-20" cy="34.641016151378" r="10"></circle>
   <circle cx="0" cy="34.641016151378" r="10"></circle>
   <circle cx="20" cy="34.641016151378" r="10"></circle>
   <circle cx="30" cy="17.320508075689" r="10"></circle>
   <circle cx="40" cy="0" r="10"></circle>
   <circle cx="50" cy="-17.320508075689" r="10"></circle>
   <circle cx="40" cy="-34.641016151378" r="10"></circle>
   <circle cx="30" cy="-51.961524227066" r="10"></circle>
   <circle cx="10" cy="-51.961524227066" r="10"></circle>
   <circle cx="-10" cy="-51.961524227066" r="10"></circle>
   <circle cx="-30" cy="-51.961524227066" r="10"></circle>
   <circle cx="-40" cy="-34.641016151378" r="10"></circle>
   <circle cx="-50" cy="-17.320508075689" r="10"></circle>
   <circle cx="-60" cy="0" r="10"></circle>
   <circle cx="-50" cy="17.320508075689" r="10"></circle>
   <circle cx="-40" cy="34.641016151378" r="10"></circle>
   <circle cx="-30" cy="51.961524227066" r="10"></circle>
   <circle cx="-10" cy="51.961524227066" r="10"></circle>
   <circle cx="10" cy="51.961524227066" r="10"></circle>
   <circle cx="30" cy="51.961524227066" r="10"></circle>
   <circle cx="40" cy="34.641016151378" r="10"></circle>
   <circle cx="50" cy="17.320508075689" r="10"></circle>
   <circle cx="60" cy="0" r="10"></circle>
   <circle cx="70" cy="-17.320508075689" r="10"></circle>
   <circle cx="60" cy="-34.641016151378" r="10"></circle>
   <circle cx="50" cy="-51.961524227066" r="10"></circle>
   <circle cx="40" cy="-69.282032302755" r="10"></circle>
   <circle cx="20" cy="-69.282032302755" r="10"></circle>
   <circle cx="0" cy="-69.282032302755" r="10"></circle>
   <circle cx="-20" cy="-69.282032302755" r="10"></circle>
   <circle cx="-40" cy="-69.282032302755" r="10"></circle>
   <circle cx="-50" cy="-51.961524227066" r="10"></circle>
   <circle cx="-60" cy="-34.641016151378" r="10"></circle>
   <circle cx="-70" cy="-17.320508075689" r="10"></circle>
   <circle cx="-80" cy="0" r="10"></circle>
</g></g>
<g id="edge20" class="edge"><title>node10--node41</title>
<path style="fill:none;stroke:black;" d="M1442,40C1439,59 1435,92 1430,125"></path>
</g>
<g id="node42" class="node"><title>node42</title>
<ellipse cx="1576" cy="232" rx="36" ry="36" style="fill:yellow;stroke:black;"></ellipse>
<g transform="translate(1576,232)">   <circle cx="0" cy="0" r="10"></circle>
</g></g>
<g id="edge22" class="edge"><title>node10--node42</title>
<path style="fill:none;stroke:black;" d="M1471,33C1490,41 1515,56 1531,76 1557,112 1568,162 1573,196"></path>
</g>
<g id="node11" class="node"><title>node11</title>
<ellipse cx="1942" cy="22" rx="42" ry="18" style="fill:none;stroke:black;"></ellipse>
<text text-anchor="middle" x="1942" y="27">Mesevania</text>
</g>
<g id="node43" class="node"><title>node43</title>
<ellipse cx="1942" cy="232" rx="36" ry="36" style="fill:yellow;stroke:black;"></ellipse>
<g transform="translate(1942,232)">   <circle cx="0" cy="0" r="10"></circle>
</g></g>
<g id="edge24" class="edge"><title>node11--node43</title>
<path style="fill:none;stroke:black;" d="M1942,40C1942,75 1942,150 1942,196"></path>
</g>
<g id="node12" class="node"><title>node12</title>
<ellipse cx="2043" cy="22" rx="40" ry="18" style="fill:none;stroke:black;"></ellipse>
<text text-anchor="middle" x="2043" y="27">Praevania</text>
</g>
<g id="node44" class="node"><title>node44</title>
<ellipse cx="2043" cy="232" rx="36" ry="36" style="fill:yellow;stroke:black;"></ellipse>
<g transform="translate(2043,232)">   <circle cx="0" cy="0" r="10"></circle>
</g></g>
<g id="edge26" class="edge"><title>node12--node44</title>
<path style="fill:none;stroke:black;" d="M2043,40C2043,75 2043,150 2043,196"></path>
</g>
<g id="node13" class="node"><title>node13</title>
<ellipse cx="2152" cy="22" rx="50" ry="18" style="fill:none;stroke:black;"></ellipse>
<text text-anchor="middle" x="2152" y="27">Procretevania</text>
</g>
<g id="node45" class="node"><title>node45</title>
<ellipse cx="2152" cy="232" rx="36" ry="36" style="fill:yellow;stroke:black;"></ellipse>
<g transform="translate(2152,232)">   <circle cx="0" cy="0" r="10"></circle>
</g></g>
<g id="edge28" class="edge"><title>node13--node45</title>
<path style="fill:none;stroke:black;" d="M2152,40C2152,75 2152,150 2152,196"></path>
</g>
<g id="node14" class="node"><title>node14</title>
<ellipse cx="2266" cy="22" rx="44" ry="18" style="fill:none;stroke:black;"></ellipse>
<text text-anchor="middle" x="2266" y="27">Rothevania</text>
</g>
<g id="node46" class="node"><title>node46</title>
<ellipse cx="2266" cy="232" rx="36" ry="36" style="fill:yellow;stroke:black;"></ellipse>
<g transform="translate(2266,232)">   <circle cx="0" cy="0" r="10"></circle>
</g></g>
<g id="edge30" class="edge"><title>node14--node46</title>
<path style="fill:none;stroke:black;" d="M2266,40C2266,75 2266,150 2266,196"></path>
</g>
<g id="node15" class="node"><title>node15</title>
<ellipse cx="2374" cy="22" rx="45" ry="18" style="fill:none;stroke:black;"></ellipse>
<text text-anchor="middle" x="2374" y="27">Trissevania</text>
</g>
<g id="node47" class="node"><title>node47</title>
<ellipse cx="2374" cy="232" rx="36" ry="36" style="fill:yellow;stroke:black;"></ellipse>
<g transform="translate(2374,232)">   <circle cx="0" cy="0" r="10"></circle>
</g></g>
<g id="edge32" class="edge"><title>node15--node47</title>
<path style="fill:none;stroke:black;" d="M2374,40C2374,75 2374,150 2374,196"></path>
</g>
<g id="node16" class="node"><title>node16</title>
<ellipse cx="2478" cy="22" rx="40" ry="18" style="fill:none;stroke:black;"></ellipse>
<text text-anchor="middle" x="2478" y="27">Afrevania</text>
</g>
<g id="node48" class="node"><title>node48</title>
<ellipse cx="2478" cy="232" rx="36" ry="36" style="fill:yellow;stroke:black;"></ellipse>
<g transform="translate(2478,232)">   <circle cx="0" cy="0" r="10"></circle>
</g></g>
<g id="edge34" class="edge"><title>node16--node48</title>
<path style="fill:none;stroke:black;" d="M2478,40C2478,75 2478,150 2478,196"></path>
</g>
<g id="node17" class="node"><title>node17</title>
<ellipse cx="2588" cy="22" rx="50" ry="18" style="fill:none;stroke:black;"></ellipse>
<text text-anchor="middle" x="2588" y="27">Eovernevania</text>
</g>
<g id="node49" class="node"><title>node49</title>
<ellipse cx="2588" cy="232" rx="36" ry="36" style="fill:yellow;stroke:black;"></ellipse>
<g transform="translate(2588,232)">   <circle cx="0" cy="0" r="10"></circle>
</g></g>
<g id="edge36" class="edge"><title>node17--node49</title>
<path style="fill:none;stroke:black;" d="M2588,40C2588,75 2588,150 2588,196"></path>
</g>
<g id="node18" class="node"><title>node18</title>
<ellipse cx="2698" cy="22" rx="40" ry="18" style="fill:none;stroke:black;"></ellipse>
<text text-anchor="middle" x="2698" y="27">Evaniscus</text>
</g>
<g id="node50" class="node"><title>node50</title>
<ellipse cx="2698" cy="232" rx="36" ry="36" style="fill:yellow;stroke:black;"></ellipse>
<g transform="translate(2698,232)">   <circle cx="0" cy="0" r="10"></circle>
   <circle cx="10" cy="-17.320508075689" r="10"></circle>
   <circle cx="-10" cy="-17.320508075689" r="10"></circle>
   <circle cx="-20" cy="0" r="10"></circle>
</g></g>
<g id="edge38" class="edge"><title>node18--node50</title>
<path style="fill:none;stroke:black;" d="M2698,40C2698,75 2698,150 2698,196"></path>
</g>
<g id="node19" class="node"><title>node19</title>
<ellipse cx="2805" cy="22" rx="48" ry="18" style="fill:none;stroke:black;"></ellipse>
<text text-anchor="middle" x="2805" y="27">Lebanevania</text>
</g>
<g id="node51" class="node"><title>node51</title>
<ellipse cx="2805" cy="232" rx="36" ry="36" style="fill:yellow;stroke:black;"></ellipse>
<g transform="translate(2805,232)">   <circle cx="0" cy="0" r="10"></circle>
</g></g>
<g id="edge40" class="edge"><title>node19--node51</title>
<path style="fill:none;stroke:black;" d="M2805,40C2805,75 2805,150 2805,196"></path>
</g>
<g id="node20" class="node"><title>node20</title>
<ellipse cx="2919" cy="22" rx="44" ry="18" style="fill:none;stroke:black;"></ellipse>
<text text-anchor="middle" x="2919" y="27">Micrevania</text>
</g>
<g id="node52" class="node"><title>node52</title>
<ellipse cx="2919" cy="232" rx="60" ry="60" style="fill:yellow;stroke:black;"></ellipse>
<g transform="translate(2919,232)">   <circle cx="0" cy="0" r="10"></circle>
   <circle cx="10" cy="-17.320508075689" r="10"></circle>
   <circle cx="-10" cy="-17.320508075689" r="10"></circle>
   <circle cx="-20" cy="0" r="10"></circle>
   <circle cx="-10" cy="17.320508075689" r="10"></circle>
   <circle cx="10" cy="17.320508075689" r="10"></circle>
   <circle cx="20" cy="0" r="10"></circle>
   <circle cx="30" cy="-17.320508075689" r="10"></circle>
</g></g>
<g id="edge42" class="edge"><title>node20--node52</title>
<path style="fill:none;stroke:black;" d="M2919,40C2919,69 2919,127 2919,172"></path>
</g>
<g id="node21" class="node"><title>node21</title>
<ellipse cx="3036" cy="22" rx="54" ry="18" style="fill:none;stroke:black;"></ellipse>
<text text-anchor="middle" x="3036" y="27">Newjersevania</text>
</g>
<g id="node53" class="node"><title>node53</title>
<ellipse cx="3036" cy="232" rx="36" ry="36" style="fill:yellow;stroke:black;"></ellipse>
<g transform="translate(3036,232)">   <circle cx="0" cy="0" r="10"></circle>
   <circle cx="10" cy="-17.320508075689" r="10"></circle>
</g></g>
<g id="edge44" class="edge"><title>node21--node53</title>
<path style="fill:none;stroke:black;" d="M3036,40C3036,75 3036,150 3036,196"></path>
</g>
<g id="node22" class="node"><title>node22</title>
<ellipse cx="3198" cy="22" rx="49" ry="18" style="fill:none;stroke:black;"></ellipse>
<text text-anchor="middle" x="3198" y="27">Semaeomyia</text>
</g>
<g id="node54" class="node"><title>node54</title>
<ellipse cx="3198" cy="232" rx="108" ry="108" style="fill:yellow;stroke:black;"></ellipse>
<g transform="translate(3198,232)">   <circle cx="0" cy="0" r="10"></circle>
   <circle cx="10" cy="-17.320508075689" r="10"></circle>
   <circle cx="-10" cy="-17.320508075689" r="10"></circle>
   <circle cx="-20" cy="0" r="10"></circle>
   <circle cx="-10" cy="17.320508075689" r="10"></circle>
   <circle cx="10" cy="17.320508075689" r="10"></circle>
   <circle cx="20" cy="0" r="10"></circle>
   <circle cx="30" cy="-17.320508075689" r="10"></circle>
   <circle cx="20" cy="-34.641016151378" r="10"></circle>
   <circle cx="0" cy="-34.641016151378" r="10"></circle>
   <circle cx="-20" cy="-34.641016151378" r="10"></circle>
   <circle cx="-30" cy="-17.320508075689" r="10"></circle>
   <circle cx="-40" cy="0" r="10"></circle>
   <circle cx="-30" cy="17.320508075689" r="10"></circle>
   <circle cx="-20" cy="34.641016151378" r="10"></circle>
   <circle cx="0" cy="34.641016151378" r="10"></circle>
   <circle cx="20" cy="34.641016151378" r="10"></circle>
   <circle cx="30" cy="17.320508075689" r="10"></circle>
   <circle cx="40" cy="0" r="10"></circle>
   <circle cx="50" cy="-17.320508075689" r="10"></circle>
   <circle cx="40" cy="-34.641016151378" r="10"></circle>
   <circle cx="30" cy="-51.961524227066" r="10"></circle>
   <circle cx="10" cy="-51.961524227066" r="10"></circle>
   <circle cx="-10" cy="-51.961524227066" r="10"></circle>
   <circle cx="-30" cy="-51.961524227066" r="10"></circle>
   <circle cx="-40" cy="-34.641016151378" r="10"></circle>
   <circle cx="-50" cy="-17.320508075689" r="10"></circle>
   <circle cx="-60" cy="0" r="10"></circle>
   <circle cx="-50" cy="17.320508075689" r="10"></circle>
   <circle cx="-40" cy="34.641016151378" r="10"></circle>
   <circle cx="-30" cy="51.961524227066" r="10"></circle>
   <circle cx="-10" cy="51.961524227066" r="10"></circle>
   <circle cx="10" cy="51.961524227066" r="10"></circle>
   <circle cx="30" cy="51.961524227066" r="10"></circle>
   <circle cx="40" cy="34.641016151378" r="10"></circle>
   <circle cx="50" cy="17.320508075689" r="10"></circle>
   <circle cx="60" cy="0" r="10"></circle>
</g></g>
<g id="edge46" class="edge"><title>node22--node54</title>
<path style="fill:none;stroke:black;" d="M3198,40C3198,59 3198,91 3198,124"></path>
</g>
<g id="node23" class="node"><title>node23</title>
<ellipse cx="3360" cy="22" rx="56" ry="18" style="fill:none;stroke:black;"></ellipse>
<text text-anchor="middle" x="3360" y="27">Thaumatevania</text>
</g>
<g id="node55" class="node"><title>node55</title>
<ellipse cx="3360" cy="232" rx="36" ry="36" style="fill:yellow;stroke:black;"></ellipse>
<g transform="translate(3360,232)">   <circle cx="0" cy="0" r="10"></circle>
</g></g>
<g id="edge48" class="edge"><title>node23--node55</title>
<path style="fill:none;stroke:black;" d="M3360,40C3360,75 3360,150 3360,196"></path>
</g>
<g id="node24" class="node"><title>node24</title>
<ellipse cx="3482" cy="22" rx="47" ry="18" style="fill:none;stroke:black;"></ellipse>
<text text-anchor="middle" x="3482" y="27">Brachevania</text>
</g>
<g id="node56" class="node"><title>node56</title>
<ellipse cx="3482" cy="232" rx="36" ry="36" style="fill:yellow;stroke:black;"></ellipse>
<g transform="translate(3482,232)">   <circle cx="0" cy="0" r="10"></circle>
</g></g>
<g id="edge50" class="edge"><title>node24--node56</title>
<path style="fill:none;stroke:black;" d="M3482,40C3482,75 3482,150 3482,196"></path>
</g>
<g id="node25" class="node"><title>node25</title>
<ellipse cx="3668" cy="22" rx="31" ry="18" style="fill:none;stroke:black;"></ellipse>
<text text-anchor="middle" x="3668" y="27">Evania</text>
</g>
<g id="node57" class="node"><title>node57</title>
<ellipse cx="3668" cy="232" rx="132" ry="132" style="fill:yellow;stroke:black;"></ellipse>
<g transform="translate(3668,232)">   <circle cx="0" cy="0" r="10"></circle>
   <circle cx="10" cy="-17.320508075689" r="10"></circle>
   <circle cx="-10" cy="-17.320508075689" r="10"></circle>
   <circle cx="-20" cy="0" r="10"></circle>
   <circle cx="-10" cy="17.320508075689" r="10"></circle>
   <circle cx="10" cy="17.320508075689" r="10"></circle>
   <circle cx="20" cy="0" r="10"></circle>
   <circle cx="30" cy="-17.320508075689" r="10"></circle>
   <circle cx="20" cy="-34.641016151378" r="10"></circle>
   <circle cx="0" cy="-34.641016151378" r="10"></circle>
   <circle cx="-20" cy="-34.641016151378" r="10"></circle>
   <circle cx="-30" cy="-17.320508075689" r="10"></circle>
   <circle cx="-40" cy="0" r="10"></circle>
   <circle cx="-30" cy="17.320508075689" r="10"></circle>
   <circle cx="-20" cy="34.641016151378" r="10"></circle>
   <circle cx="0" cy="34.641016151378" r="10"></circle>
   <circle cx="20" cy="34.641016151378" r="10"></circle>
   <circle cx="30" cy="17.320508075689" r="10"></circle>
   <circle cx="40" cy="0" r="10"></circle>
   <circle cx="50" cy="-17.320508075689" r="10"></circle>
   <circle cx="40" cy="-34.641016151378" r="10"></circle>
   <circle cx="30" cy="-51.961524227066" r="10"></circle>
   <circle cx="10" cy="-51.961524227066" r="10"></circle>
   <circle cx="-10" cy="-51.961524227066" r="10"></circle>
   <circle cx="-30" cy="-51.961524227066" r="10"></circle>
   <circle cx="-40" cy="-34.641016151378" r="10"></circle>
   <circle cx="-50" cy="-17.320508075689" r="10"></circle>
   <circle cx="-60" cy="0" r="10"></circle>
   <circle cx="-50" cy="17.320508075689" r="10"></circle>
   <circle cx="-40" cy="34.641016151378" r="10"></circle>
   <circle cx="-30" cy="51.961524227066" r="10"></circle>
   <circle cx="-10" cy="51.961524227066" r="10"></circle>
   <circle cx="10" cy="51.961524227066" r="10"></circle>
   <circle cx="30" cy="51.961524227066" r="10"></circle>
   <circle cx="40" cy="34.641016151378" r="10"></circle>
   <circle cx="50" cy="17.320508075689" r="10"></circle>
   <circle cx="60" cy="0" r="10"></circle>
   <circle cx="70" cy="-17.320508075689" r="10"></circle>
   <circle cx="60" cy="-34.641016151378" r="10"></circle>
   <circle cx="50" cy="-51.961524227066" r="10"></circle>
   <circle cx="40" cy="-69.282032302755" r="10"></circle>
   <circle cx="20" cy="-69.282032302755" r="10"></circle>
   <circle cx="0" cy="-69.282032302755" r="10"></circle>
   <circle cx="-20" cy="-69.282032302755" r="10"></circle>
   <circle cx="-40" cy="-69.282032302755" r="10"></circle>
   <circle cx="-50" cy="-51.961524227066" r="10"></circle>
   <circle cx="-60" cy="-34.641016151378" r="10"></circle>
   <circle cx="-70" cy="-17.320508075689" r="10"></circle>
   <circle cx="-80" cy="0" r="10"></circle>
   <circle cx="-70" cy="17.320508075689" r="10"></circle>
   <circle cx="-60" cy="34.641016151378" r="10"></circle>
   <circle cx="-50" cy="51.961524227066" r="10"></circle>
   <circle cx="-40" cy="69.282032302755" r="10"></circle>
   <circle cx="-20" cy="69.282032302755" r="10"></circle>
   <circle cx="0" cy="69.282032302755" r="10"></circle>
   <circle cx="20" cy="69.282032302755" r="10"></circle>
   <circle cx="40" cy="69.282032302755" r="10"></circle>
   <circle cx="50" cy="51.961524227066" r="10"></circle>
   <circle cx="60" cy="34.641016151378" r="10"></circle>
   <circle cx="70" cy="17.320508075689" r="10"></circle>
   <circle cx="80" cy="0" r="10"></circle>
   <circle cx="90" cy="-17.320508075689" r="10"></circle>
   <circle cx="80" cy="-34.641016151378" r="10"></circle>
   <circle cx="70" cy="-51.961524227066" r="10"></circle>
</g></g>
<g id="edge52" class="edge"><title>node25--node57</title>
<path style="fill:none;stroke:black;" d="M3668,40C3668,54 3668,76 3668,100"></path>
</g>
<g id="node26" class="node"><title>node26</title>
<ellipse cx="3854" cy="22" rx="38" ry="18" style="fill:none;stroke:black;"></ellipse>
<text text-anchor="middle" x="3854" y="27">Papatuka</text>
</g>
<g id="node58" class="node"><title>node58</title>
<ellipse cx="3854" cy="232" rx="36" ry="36" style="fill:yellow;stroke:black;"></ellipse>
<g transform="translate(3854,232)">   <circle cx="0" cy="0" r="10"></circle>
   <circle cx="10" cy="-17.320508075689" r="10"></circle>
   <circle cx="-10" cy="-17.320508075689" r="10"></circle>
</g></g>
<g id="edge54" class="edge"><title>node26--node58</title>
<path style="fill:none;stroke:black;" d="M3854,40C3854,75 3854,150 3854,196"></path>
</g>
<g id="node27" class="node"><title>node27</title>
<ellipse cx="4064" cy="22" rx="43" ry="18" style="fill:none;stroke:black;"></ellipse>
<text text-anchor="middle" x="4064" y="27">Prosevania</text>
</g>
<g id="node59" class="node"><title>node59</title>
<ellipse cx="4064" cy="232" rx="156" ry="156" style="fill:yellow;stroke:black;"></ellipse>
<g transform="translate(4064,232)">   <circle cx="0" cy="0" r="10"></circle>
   <circle cx="10" cy="-17.320508075689" r="10"></circle>
   <circle cx="-10" cy="-17.320508075689" r="10"></circle>
   <circle cx="-20" cy="0" r="10"></circle>
   <circle cx="-10" cy="17.320508075689" r="10"></circle>
   <circle cx="10" cy="17.320508075689" r="10"></circle>
   <circle cx="20" cy="0" r="10"></circle>
   <circle cx="30" cy="-17.320508075689" r="10"></circle>
   <circle cx="20" cy="-34.641016151378" r="10"></circle>
   <circle cx="0" cy="-34.641016151378" r="10"></circle>
   <circle cx="-20" cy="-34.641016151378" r="10"></circle>
   <circle cx="-30" cy="-17.320508075689" r="10"></circle>
   <circle cx="-40" cy="0" r="10"></circle>
   <circle cx="-30" cy="17.320508075689" r="10"></circle>
   <circle cx="-20" cy="34.641016151378" r="10"></circle>
   <circle cx="0" cy="34.641016151378" r="10"></circle>
   <circle cx="20" cy="34.641016151378" r="10"></circle>
   <circle cx="30" cy="17.320508075689" r="10"></circle>
   <circle cx="40" cy="0" r="10"></circle>
   <circle cx="50" cy="-17.320508075689" r="10"></circle>
   <circle cx="40" cy="-34.641016151378" r="10"></circle>
   <circle cx="30" cy="-51.961524227066" r="10"></circle>
   <circle cx="10" cy="-51.961524227066" r="10"></circle>
   <circle cx="-10" cy="-51.961524227066" r="10"></circle>
   <circle cx="-30" cy="-51.961524227066" r="10"></circle>
   <circle cx="-40" cy="-34.641016151378" r="10"></circle>
   <circle cx="-50" cy="-17.320508075689" r="10"></circle>
   <circle cx="-60" cy="0" r="10"></circle>
   <circle cx="-50" cy="17.320508075689" r="10"></circle>
   <circle cx="-40" cy="34.641016151378" r="10"></circle>
   <circle cx="-30" cy="51.961524227066" r="10"></circle>
   <circle cx="-10" cy="51.961524227066" r="10"></circle>
   <circle cx="10" cy="51.961524227066" r="10"></circle>
   <circle cx="30" cy="51.961524227066" r="10"></circle>
   <circle cx="40" cy="34.641016151378" r="10"></circle>
   <circle cx="50" cy="17.320508075689" r="10"></circle>
   <circle cx="60" cy="0" r="10"></circle>
   <circle cx="70" cy="-17.320508075689" r="10"></circle>
   <circle cx="60" cy="-34.641016151378" r="10"></circle>
   <circle cx="50" cy="-51.961524227066" r="10"></circle>
   <circle cx="40" cy="-69.282032302755" r="10"></circle>
   <circle cx="20" cy="-69.282032302755" r="10"></circle>
   <circle cx="0" cy="-69.282032302755" r="10"></circle>
   <circle cx="-20" cy="-69.282032302755" r="10"></circle>
   <circle cx="-40" cy="-69.282032302755" r="10"></circle>
   <circle cx="-50" cy="-51.961524227066" r="10"></circle>
   <circle cx="-60" cy="-34.641016151378" r="10"></circle>
   <circle cx="-70" cy="-17.320508075689" r="10"></circle>
   <circle cx="-80" cy="0" r="10"></circle>
   <circle cx="-70" cy="17.320508075689" r="10"></circle>
   <circle cx="-60" cy="34.641016151378" r="10"></circle>
   <circle cx="-50" cy="51.961524227066" r="10"></circle>
   <circle cx="-40" cy="69.282032302755" r="10"></circle>
   <circle cx="-20" cy="69.282032302755" r="10"></circle>
   <circle cx="0" cy="69.282032302755" r="10"></circle>
   <circle cx="20" cy="69.282032302755" r="10"></circle>
   <circle cx="40" cy="69.282032302755" r="10"></circle>
   <circle cx="50" cy="51.961524227066" r="10"></circle>
   <circle cx="60" cy="34.641016151378" r="10"></circle>
   <circle cx="70" cy="17.320508075689" r="10"></circle>
   <circle cx="80" cy="0" r="10"></circle>
   <circle cx="90" cy="-17.320508075689" r="10"></circle>
   <circle cx="80" cy="-34.641016151378" r="10"></circle>
   <circle cx="70" cy="-51.961524227066" r="10"></circle>
   <circle cx="60" cy="-69.282032302755" r="10"></circle>
   <circle cx="50" cy="-86.602540378444" r="10"></circle>
   <circle cx="30" cy="-86.602540378444" r="10"></circle>
   <circle cx="10" cy="-86.602540378444" r="10"></circle>
   <circle cx="-10" cy="-86.602540378444" r="10"></circle>
   <circle cx="-30" cy="-86.602540378444" r="10"></circle>
   <circle cx="-50" cy="-86.602540378444" r="10"></circle>
   <circle cx="-60" cy="-69.282032302755" r="10"></circle>
   <circle cx="-70" cy="-51.961524227066" r="10"></circle>
   <circle cx="-80" cy="-34.641016151378" r="10"></circle>
   <circle cx="-90" cy="-17.320508075689" r="10"></circle>
   <circle cx="-100" cy="0" r="10"></circle>
   <circle cx="-90" cy="17.320508075689" r="10"></circle>
   <circle cx="-80" cy="34.641016151378" r="10"></circle>
   <circle cx="-70" cy="51.961524227066" r="10"></circle>
   <circle cx="-60" cy="69.282032302755" r="10"></circle>
   <circle cx="-50" cy="86.602540378444" r="10"></circle>
   <circle cx="-30" cy="86.602540378444" r="10"></circle>
   <circle cx="-10" cy="86.602540378444" r="10"></circle>
   <circle cx="10" cy="86.602540378444" r="10"></circle>
   <circle cx="30" cy="86.602540378444" r="10"></circle>
   <circle cx="50" cy="86.602540378444" r="10"></circle>
   <circle cx="60" cy="69.282032302755" r="10"></circle>
   <circle cx="70" cy="51.961524227066" r="10"></circle>
   <circle cx="80" cy="34.641016151378" r="10"></circle>
   <circle cx="90" cy="17.320508075689" r="10"></circle>
   <circle cx="100" cy="0" r="10"></circle>
   <circle cx="110" cy="-17.320508075689" r="10"></circle>
   <circle cx="100" cy="-34.641016151378" r="10"></circle>
   <circle cx="90" cy="-51.961524227066" r="10"></circle>
   <circle cx="80" cy="-69.282032302755" r="10"></circle>
   <circle cx="70" cy="-86.602540378444" r="10"></circle>
   <circle cx="60" cy="-103.92304845413" r="10"></circle>
   <circle cx="40" cy="-103.92304845413" r="10"></circle>
   <circle cx="20" cy="-103.92304845413" r="10"></circle>
   <circle cx="0" cy="-103.92304845413" r="10"></circle>
   <circle cx="-20" cy="-103.92304845413" r="10"></circle>
   <circle cx="-40" cy="-103.92304845413" r="10"></circle>
</g></g>
<g id="edge56" class="edge"><title>node27--node59</title>
<path style="fill:none;stroke:black;" d="M4064,40C4064,49 4064,62 4064,76"></path>
</g>
<g id="node28" class="node"><title>node28</title>
<ellipse cx="1694" cy="22" rx="49" ry="18" style="fill:none;stroke:black;"></ellipse>
<text text-anchor="middle" x="1694" y="27">Szepligetella</text>
</g>
<g id="edge58" class="edge"><title>node28--node42</title>
<path style="fill:none;stroke:black;" d="M1666,37C1650,46 1632,60 1621,76 1595,113 1584,162 1580,196"></path>
</g>
<g id="node60" class="node"><title>node60</title>
<ellipse cx="1690" cy="232" rx="60" ry="60" style="fill:yellow;stroke:black;"></ellipse>
<g transform="translate(1690,232)">   <circle cx="0" cy="0" r="10"></circle>
   <circle cx="10" cy="-17.320508075689" r="10"></circle>
   <circle cx="-10" cy="-17.320508075689" r="10"></circle>
   <circle cx="-20" cy="0" r="10"></circle>
   <circle cx="-10" cy="17.320508075689" r="10"></circle>
   <circle cx="10" cy="17.320508075689" r="10"></circle>
   <circle cx="20" cy="0" r="10"></circle>
   <circle cx="30" cy="-17.320508075689" r="10"></circle>
   <circle cx="20" cy="-34.641016151378" r="10"></circle>
   <circle cx="0" cy="-34.641016151378" r="10"></circle>
   <circle cx="-20" cy="-34.641016151378" r="10"></circle>
   <circle cx="-30" cy="-17.320508075689" r="10"></circle>
   <circle cx="-40" cy="0" r="10"></circle>
</g></g>
<g id="edge60" class="edge"><title>node28--node60</title>
<path style="fill:none;stroke:black;" d="M1694,40C1693,69 1692,127 1691,172"></path>
</g>
<g id="node61" class="node"><title>node61</title>
<ellipse cx="1828" cy="232" rx="60" ry="60" style="fill:yellow;stroke:black;"></ellipse>
<g transform="translate(1828,232)">   <circle cx="0" cy="0" r="10"></circle>
   <circle cx="10" cy="-17.320508075689" r="10"></circle>
   <circle cx="-10" cy="-17.320508075689" r="10"></circle>
   <circle cx="-20" cy="0" r="10"></circle>
   <circle cx="-10" cy="17.320508075689" r="10"></circle>
   <circle cx="10" cy="17.320508075689" r="10"></circle>
   <circle cx="20" cy="0" r="10"></circle>
   <circle cx="30" cy="-17.320508075689" r="10"></circle>
   <circle cx="20" cy="-34.641016151378" r="10"></circle>
   <circle cx="0" cy="-34.641016151378" r="10"></circle>
   <circle cx="-20" cy="-34.641016151378" r="10"></circle>
</g></g>
<g id="edge62" class="edge"><title>node28--node61</title>
<path style="fill:none;stroke:black;" d="M1718,38C1731,48 1747,61 1759,76 1781,106 1798,144 1810,175"></path>
</g>
<g id="node29" class="node"><title>node29</title>
<ellipse cx="1576" cy="22" rx="51" ry="18" style="fill:none;stroke:black;"></ellipse>
<text text-anchor="middle" x="1576" y="27">Szepligetiella</text>
</g>
<g id="edge64" class="edge"><title>node29--node42</title>
<path style="fill:none;stroke:black;" d="M1576,40C1576,75 1576,150 1576,196"></path>
</g>
<g id="edge66" class="edge"><title>node29--node60</title>
<path style="fill:none;stroke:black;" d="M1592,39C1601,49 1613,63 1621,76 1640,107 1657,145 1669,175"></path>
</g>
<g id="node30" class="node"><title>node30</title>
<ellipse cx="4274" cy="22" rx="43" ry="18" style="fill:none;stroke:black;"></ellipse>
<text text-anchor="middle" x="4274" y="27">Vernevania</text>
</g>
<g id="node62" class="node"><title>node62</title>
<ellipse cx="4274" cy="232" rx="36" ry="36" style="fill:yellow;stroke:black;"></ellipse>
<g transform="translate(4274,232)">   <circle cx="0" cy="0" r="10"></circle>
</g></g>
<g id="edge68" class="edge"><title>node30--node62</title>
<path style="fill:none;stroke:black;" d="M4274,40C4274,75 4274,150 4274,196"></path>
</g>
<g id="node31" class="node"><title>node31</title>
<ellipse cx="4388" cy="22" rx="45" ry="18" style="fill:none;stroke:black;"></ellipse>
<text text-anchor="middle" x="4388" y="27">Zeuxevania</text>
</g>
<g id="node63" class="node"><title>node63</title>
<ellipse cx="4388" cy="232" rx="60" ry="60" style="fill:yellow;stroke:black;"></ellipse>
<g transform="translate(4388,232)">   <circle cx="0" cy="0" r="10"></circle>
   <circle cx="10" cy="-17.320508075689" r="10"></circle>
   <circle cx="-10" cy="-17.320508075689" r="10"></circle>
   <circle cx="-20" cy="0" r="10"></circle>
   <circle cx="-10" cy="17.320508075689" r="10"></circle>
   <circle cx="10" cy="17.320508075689" r="10"></circle>
   <circle cx="20" cy="0" r="10"></circle>
   <circle cx="30" cy="-17.320508075689" r="10"></circle>
</g></g>
<g id="edge70" class="edge"><title>node31--node63</title>
<path style="fill:none;stroke:black;" d="M4388,40C4388,69 4388,127 4388,172"></path>
</g>
</g>
</svg>