<svg xmlns="http://www.w3.org/2000/svg" width="450pt" height="252pt" viewBox="-1 -1 449 251">
<g id="graph0" class="graph" style="font-family:Times-Roman;font-size:14.00;">
<title>G</title>
<g id="node1" class="node"><title>node1</title>
<ellipse cx="227" cy="22" rx="37" ry="18" style="fill:none;stroke:black;"></ellipse>
<text text-anchor="middle" x="227" y="27">Hoolock</text>
</g>
<g id="node4" class="node"><title>node4</title>
<ellipse cx="227" cy="160" rx="36" ry="36" style="fill:yellow;stroke:black;"></ellipse>
<g transform="translate(227,160)">   <circle cx="0" cy="0" r="10"></circle>
</g></g>
<g id="edge2" class="edge"><title>node1--node4</title>
<path style="fill:none;stroke:black;" d="M227,40C227,61 227,97 227,124"></path>
</g>
<g id="node5" class="node"><title>node5</title>
<ellipse cx="317" cy="160" rx="36" ry="36" style="fill:yellow;stroke:black;"></ellipse>
<g transform="translate(317,160)">   <circle cx="0" cy="0" r="10"></circle>
</g></g>
<g id="edge4" class="edge"><title>node1--node5</title>
<path style="fill:none;stroke:black;" d="M242,39C251,49 263,63 272,76 283,93 293,112 301,128"></path>
</g>
<g id="node2" class="node"><title>node2</title>
<ellipse cx="109" cy="22" rx="40" ry="18" style="fill:none;stroke:black;"></ellipse>
<text text-anchor="middle" x="109" y="27">Hylobates</text>
</g>
<g id="edge6" class="edge"><title>node2--node4</title>
<path style="fill:none;stroke:black;" d="M134,37C149,46 168,60 182,76 195,91 205,111 213,127"></path>
</g>
<g id="node6" class="node"><title>node6</title>
<ellipse cx="89" cy="160" rx="84" ry="84" style="fill:yellow;stroke:black;"></ellipse>
<g transform="translate(89,160)">   <circle cx="0" cy="0" r="10"></circle>
   <circle cx="10" cy="-17.320508075689" r="10"></circle>
   <circle cx="-10" cy="-17.320508075689" r="10"></circle>
   <circle cx="-20" cy="0" r="10"></circle>
   <circle cx="-10" cy="17.320508075689" r="10"></circle>
   <circle cx="10" cy="17.320508075689" r="10"></circle>
   <circle cx="20" cy="0" r="10"></circle>
   <circle cx="30" cy="-17.320508075689" r="10"></circle>
   <circle cx="20" cy="-34.641016151378" r="10"></circle>
   <circle cx="0" cy="-34.641016151378" r="10"></circle>
   <circle cx="-20" cy="-34.641016151378" r="10"></circle>
   <circle cx="-30" cy="-17.320508075689" r="10"></circle>
   <circle cx="-40" cy="0" r="10"></circle>
   <circle cx="-30" cy="17.320508075689" r="10"></circle>
   <circle cx="-20" cy="34.641016151378" r="10"></circle>
   <circle cx="0" cy="34.641016151378" r="10"></circle>
   <circle cx="20" cy="34.641016151378" r="10"></circle>
   <circle cx="30" cy="17.320508075689" r="10"></circle>
   <circle cx="40" cy="0" r="10"></circle>
   <circle cx="50" cy="-17.320508075689" r="10"></circle>
   <circle cx="40" cy="-34.641016151378" r="10"></circle>
   <circle cx="30" cy="-51.961524227066" r="10"></circle>
   <circle cx="10" cy="-51.961524227066" r="10"></circle>
   <circle cx="-10" cy="-51.961524227066" r="10"></circle>
   <circle cx="-30" cy="-51.961524227066" r="10"></circle>
   <circle cx="-40" cy="-34.641016151378" r="10"></circle>
   <circle cx="-50" cy="-17.320508075689" r="10"></circle>
</g></g>
<g id="edge8" class="edge"><title>node2--node6</title>
<path style="fill:none;stroke:black;" d="M106,40C105,50 103,63 101,77"></path>
</g>
<g id="node3" class="node"><title>node3</title>
<ellipse cx="334" cy="22" rx="50" ry="18" style="fill:none;stroke:black;"></ellipse>
<text text-anchor="middle" x="334" y="27">Bunopithecus</text>
</g>
<g id="edge10" class="edge"><title>node3--node4</title>
<path style="fill:none;stroke:black;" d="M312,38C299,48 283,62 272,76 260,92 249,111 241,127"></path>
</g>
<g id="edge12" class="edge"><title>node3--node5</title>
<path style="fill:none;stroke:black;" d="M332,40C329,61 325,97 321,124"></path>
</g>
<g id="node7" class="node"><title>node7</title>
<ellipse cx="407" cy="160" rx="36" ry="36" style="fill:yellow;stroke:black;"></ellipse>
<g transform="translate(407,160)">   <circle cx="0" cy="0" r="10"></circle>
   <circle cx="10" cy="-17.320508075689" r="10"></circle>
   <circle cx="-10" cy="-17.320508075689" r="10"></circle>
</g></g>
<g id="edge14" class="edge"><title>node3--node7</title>
<path style="fill:none;stroke:black;" d="M343,40C355,62 375,101 390,128"></path>
</g>
</g>
</svg>