<svg xmlns="http://www.w3.org/2000/svg" width="2680pt" height="348pt" viewBox="-1 -1 2679 347">
<g id="graph0" class="graph" style="font-family:Times-Roman;font-size:14.00;">
<title>G</title>
<g id="node1" class="node"><title>node1</title>
<ellipse cx="41" cy="22" rx="33" ry="18" style="fill:none;stroke:black;"></ellipse>
<text text-anchor="middle" x="41" y="27">Feihyla</text>
</g>
<g id="node16" class="node"><title>node16</title>
<ellipse cx="41" cy="208" rx="36" ry="36" style="fill:yellow;stroke:black;"></ellipse>
<g transform="translate(41,208)">   <circle cx="0" cy="0" r="10"></circle>
</g></g>
<g id="edge2" class="edge"><title>node1--node16</title>
<path style="fill:none;stroke:black;" d="M41,40C41,71 41,132 41,172"></path>
</g>
<g id="node2" class="node"><title>node2</title>
<ellipse cx="216" cy="22" rx="46" ry="18" style="fill:none;stroke:black;"></ellipse>
<text style="color:black;" text-anchor="middle" x="216" y="27">Raorchestes</text>
</g>
<g id="node17" class="node"><title>node17</title>
<ellipse cx="401" cy="208" rx="84" ry="84" style="fill:yellow;stroke:black;"></ellipse>
<g transform="translate(401,208)">   <circle cx="0" cy="0" r="10"></circle>
   <circle cx="10" cy="-17.320508075689" r="10"></circle>
   <circle cx="-10" cy="-17.320508075689" r="10"></circle>
   <circle cx="-20" cy="0" r="10"></circle>
   <circle cx="-10" cy="17.320508075689" r="10"></circle>
   <circle cx="10" cy="17.320508075689" r="10"></circle>
   <circle cx="20" cy="0" r="10"></circle>
   <circle cx="30" cy="-17.320508075689" r="10"></circle>
   <circle cx="20" cy="-34.641016151378" r="10"></circle>
   <circle cx="0" cy="-34.641016151378" r="10"></circle>
   <circle cx="-20" cy="-34.641016151378" r="10"></circle>
   <circle cx="-30" cy="-17.320508075689" r="10"></circle>
   <circle cx="-40" cy="0" r="10"></circle>
   <circle cx="-30" cy="17.320508075689" r="10"></circle>
   <circle cx="-20" cy="34.641016151378" r="10"></circle>
   <circle cx="0" cy="34.641016151378" r="10"></circle>
   <circle cx="20" cy="34.641016151378" r="10"></circle>
   <circle cx="30" cy="17.320508075689" r="10"></circle>
   <circle cx="40" cy="0" r="10"></circle>
   <circle cx="50" cy="-17.320508075689" r="10"></circle>
   <circle cx="40" cy="-34.641016151378" r="10"></circle>
   <circle cx="30" cy="-51.961524227066" r="10"></circle>
   <circle cx="10" cy="-51.961524227066" r="10"></circle>
   <circle cx="-10" cy="-51.961524227066" r="10"></circle>
   <circle cx="-30" cy="-51.961524227066" r="10"></circle>
   <circle cx="-40" cy="-34.641016151378" r="10"></circle>
   <circle cx="-50" cy="-17.320508075689" r="10"></circle>
</g></g>
<g id="edge4" class="edge"><title>node2--node17</title>
<path style="fill:none;stroke:black;" d="M247,36C266,45 290,59 308,76 327,93 344,115 358,136"></path>
</g>
<g id="node18" class="node"><title>node18</title>
<ellipse cx="173" cy="208" rx="36" ry="36" style="fill:yellow;stroke:black;"></ellipse>
<g transform="translate(173,208)">   <circle cx="0" cy="0" r="10"></circle>
   <circle cx="10" cy="-17.320508075689" r="10"></circle>
</g></g>
<g id="edge6" class="edge"><title>node2--node18</title>
<path style="fill:none;stroke:black;" d="M212,40C205,71 190,133 181,173"></path>
</g>
<g id="node3" class="node"><title>node3</title>
<ellipse cx="1643" cy="22" rx="39" ry="18" style="fill:none;stroke:black;"></ellipse>
<text text-anchor="middle" x="1643" y="27">Buergeria</text>
</g>
<g id="node19" class="node"><title>node19</title>
<ellipse cx="1643" cy="208" rx="36" ry="36" style="fill:yellow;stroke:black;"></ellipse>
<g transform="translate(1643,208)">   <circle cx="0" cy="0" r="10"></circle>
   <circle cx="10" cy="-17.320508075689" r="10"></circle>
   <circle cx="-10" cy="-17.320508075689" r="10"></circle>
   <circle cx="-20" cy="0" r="10"></circle>
   <circle cx="-10" cy="17.320508075689" r="10"></circle>
</g></g>
<g id="edge8" class="edge"><title>node3--node19</title>
<path style="fill:none;stroke:black;" d="M1643,40C1643,71 1643,132 1643,172"></path>
</g>
<g id="node4" class="node"><title>node4</title>
<ellipse cx="1744" cy="22" rx="42" ry="18" style="fill:none;stroke:black;"></ellipse>
<text text-anchor="middle" x="1744" y="27">Ghatixalus</text>
</g>
<g id="node20" class="node"><title>node20</title>
<ellipse cx="1744" cy="208" rx="36" ry="36" style="fill:yellow;stroke:black;"></ellipse>
<g transform="translate(1744,208)">   <circle cx="0" cy="0" r="10"></circle>
   <circle cx="10" cy="-17.320508075689" r="10"></circle>
</g></g>
<g id="edge10" class="edge"><title>node4--node20</title>
<path style="fill:none;stroke:black;" d="M1744,40C1744,71 1744,132 1744,172"></path>
</g>
<g id="node5" class="node"><title>node5</title>
<ellipse cx="492" cy="22" rx="58" ry="18" style="fill:none;stroke:black;"></ellipse>
<text text-anchor="middle" x="492" y="27">Pseudophilautus</text>
</g>
<g id="node21" class="node"><title>node21</title>
<ellipse cx="611" cy="208" rx="108" ry="108" style="fill:yellow;stroke:black;"></ellipse>
<g transform="translate(611,208)">   <circle cx="0" cy="0" r="10"></circle>
   <circle cx="10" cy="-17.320508075689" r="10"></circle>
   <circle cx="-10" cy="-17.320508075689" r="10"></circle>
   <circle cx="-20" cy="0" r="10"></circle>
   <circle cx="-10" cy="17.320508075689" r="10"></circle>
   <circle cx="10" cy="17.320508075689" r="10"></circle>
   <circle cx="20" cy="0" r="10"></circle>
   <circle cx="30" cy="-17.320508075689" r="10"></circle>
   <circle cx="20" cy="-34.641016151378" r="10"></circle>
   <circle cx="0" cy="-34.641016151378" r="10"></circle>
   <circle cx="-20" cy="-34.641016151378" r="10"></circle>
   <circle cx="-30" cy="-17.320508075689" r="10"></circle>
   <circle cx="-40" cy="0" r="10"></circle>
   <circle cx="-30" cy="17.320508075689" r="10"></circle>
   <circle cx="-20" cy="34.641016151378" r="10"></circle>
   <circle cx="0" cy="34.641016151378" r="10"></circle>
   <circle cx="20" cy="34.641016151378" r="10"></circle>
   <circle cx="30" cy="17.320508075689" r="10"></circle>
   <circle cx="40" cy="0" r="10"></circle>
   <circle cx="50" cy="-17.320508075689" r="10"></circle>
   <circle cx="40" cy="-34.641016151378" r="10"></circle>
   <circle cx="30" cy="-51.961524227066" r="10"></circle>
   <circle cx="10" cy="-51.961524227066" r="10"></circle>
   <circle cx="-10" cy="-51.961524227066" r="10"></circle>
   <circle cx="-30" cy="-51.961524227066" r="10"></circle>
   <circle cx="-40" cy="-34.641016151378" r="10"></circle>
   <circle cx="-50" cy="-17.320508075689" r="10"></circle>
   <circle cx="-60" cy="0" r="10"></circle>
   <circle cx="-50" cy="17.320508075689" r="10"></circle>
   <circle cx="-40" cy="34.641016151378" r="10"></circle>
   <circle cx="-30" cy="51.961524227066" r="10"></circle>
   <circle cx="-10" cy="51.961524227066" r="10"></circle>
   <circle cx="10" cy="51.961524227066" r="10"></circle>
   <circle cx="30" cy="51.961524227066" r="10"></circle>
   <circle cx="40" cy="34.641016151378" r="10"></circle>
   <circle cx="50" cy="17.320508075689" r="10"></circle>
   <circle cx="60" cy="0" r="10"></circle>
   <circle cx="70" cy="-17.320508075689" r="10"></circle>
   <circle cx="60" cy="-34.641016151378" r="10"></circle>
   <circle cx="50" cy="-51.961524227066" r="10"></circle>
   <circle cx="40" cy="-69.282032302755" r="10"></circle>
   <circle cx="20" cy="-69.282032302755" r="10"></circle>
   <circle cx="0" cy="-69.282032302755" r="10"></circle>
   <circle cx="-20" cy="-69.282032302755" r="10"></circle>
   <circle cx="-40" cy="-69.282032302755" r="10"></circle>
   <circle cx="-50" cy="-51.961524227066" r="10"></circle>
   <circle cx="-60" cy="-34.641016151378" r="10"></circle>
   <circle cx="-70" cy="-17.320508075689" r="10"></circle>
   <circle cx="-80" cy="0" r="10"></circle>
   <circle cx="-70" cy="17.320508075689" r="10"></circle>
   <circle cx="-60" cy="34.641016151378" r="10"></circle>
   <circle cx="-50" cy="51.961524227066" r="10"></circle>
   <circle cx="-40" cy="69.282032302755" r="10"></circle>
   <circle cx="-20" cy="69.282032302755" r="10"></circle>
   <circle cx="0" cy="69.282032302755" r="10"></circle>
   <circle cx="20" cy="69.282032302755" r="10"></circle>
   <circle cx="40" cy="69.282032302755" r="10"></circle>
   <circle cx="50" cy="51.961524227066" r="10"></circle>
</g></g>
<g id="edge12" class="edge"><title>node5--node21</title>
<path style="fill:none;stroke:black;" d="M503,40C515,58 534,88 553,117"></path>
</g>
<g id="node22" class="node"><title>node22</title>
<ellipse cx="263" cy="208" rx="36" ry="36" style="fill:yellow;stroke:black;"></ellipse>
<g transform="translate(263,208)">   <circle cx="0" cy="0" r="10"></circle>
   <circle cx="10" cy="-17.320508075689" r="10"></circle>
   <circle cx="-10" cy="-17.320508075689" r="10"></circle>
   <circle cx="-20" cy="0" r="10"></circle>
   <circle cx="-10" cy="17.320508075689" r="10"></circle>
   <circle cx="10" cy="17.320508075689" r="10"></circle>
</g></g>
<g id="edge14" class="edge"><title>node5--node22</title>
<path style="fill:none;stroke:black;" d="M442,32C394,41 327,58 308,76 282,101 271,142 266,172"></path>
</g>
<g id="node6" class="node"><title>node6</title>
<ellipse cx="1858" cy="22" rx="47" ry="18" style="fill:none;stroke:black;"></ellipse>
<text text-anchor="middle" x="1858" y="27">Chiromantis</text>
</g>
<g id="node23" class="node"><title>node23</title>
<ellipse cx="1858" cy="208" rx="60" ry="60" style="fill:yellow;stroke:black;"></ellipse>
<g transform="translate(1858,208)">   <circle cx="0" cy="0" r="10"></circle>
   <circle cx="10" cy="-17.320508075689" r="10"></circle>
   <circle cx="-10" cy="-17.320508075689" r="10"></circle>
   <circle cx="-20" cy="0" r="10"></circle>
   <circle cx="-10" cy="17.320508075689" r="10"></circle>
   <circle cx="10" cy="17.320508075689" r="10"></circle>
   <circle cx="20" cy="0" r="10"></circle>
   <circle cx="30" cy="-17.320508075689" r="10"></circle>
   <circle cx="20" cy="-34.641016151378" r="10"></circle>
   <circle cx="0" cy="-34.641016151378" r="10"></circle>
   <circle cx="-20" cy="-34.641016151378" r="10"></circle>
   <circle cx="-30" cy="-17.320508075689" r="10"></circle>
   <circle cx="-40" cy="0" r="10"></circle>
   <circle cx="-30" cy="17.320508075689" r="10"></circle>
   <circle cx="-20" cy="34.641016151378" r="10"></circle>
</g></g>
<g id="edge16" class="edge"><title>node6--node23</title>
<path style="fill:none;stroke:black;" d="M1858,40C1858,65 1858,110 1858,148"></path>
</g>
<g id="node7" class="node"><title>node7</title>
<ellipse cx="1055" cy="22" rx="42" ry="18" style="fill:none;stroke:black;"></ellipse>
<text text-anchor="middle" x="1055" y="27">Gracixalus</text>
</g>
<g id="node24" class="node"><title>node24</title>
<ellipse cx="1187" cy="208" rx="36" ry="36" style="fill:yellow;stroke:black;"></ellipse>
<g transform="translate(1187,208)">   <circle cx="0" cy="0" r="10"></circle>
   <circle cx="10" cy="-17.320508075689" r="10"></circle>
</g></g>
<g id="edge18" class="edge"><title>node7--node24</title>
<path style="fill:none;stroke:black;" d="M1086,35C1104,44 1127,58 1142,76 1164,104 1175,144 1181,172"></path>
</g>
<g id="node25" class="node"><title>node25</title>
<ellipse cx="1007" cy="208" rx="36" ry="36" style="fill:yellow;stroke:black;"></ellipse>
<g transform="translate(1007,208)">   <circle cx="0" cy="0" r="10"></circle>
   <circle cx="10" cy="-17.320508075689" r="10"></circle>
</g></g>
<g id="edge20" class="edge"><title>node7--node25</title>
<path style="fill:none;stroke:black;" d="M1050,40C1042,71 1026,134 1016,173"></path>
</g>
<g id="node8" class="node"><title>node8</title>
<ellipse cx="1972" cy="22" rx="45" ry="18" style="fill:none;stroke:black;"></ellipse>
<text text-anchor="middle" x="1972" y="27">Hylambates</text>
</g>
<g id="node26" class="node"><title>node26</title>
<ellipse cx="1972" cy="208" rx="36" ry="36" style="fill:yellow;stroke:black;"></ellipse>
<g transform="translate(1972,208)">   <circle cx="0" cy="0" r="10"></circle>
</g></g>
<g id="edge22" class="edge"><title>node8--node26</title>
<path style="fill:none;stroke:black;" d="M1972,40C1972,71 1972,132 1972,172"></path>
</g>
<g id="node9" class="node"><title>node9</title>
<ellipse cx="1252" cy="22" rx="40" ry="18" style="fill:none;stroke:black;"></ellipse>
<text text-anchor="middle" x="1252" y="27">Kurixalus</text>
</g>
<g id="node27" class="node"><title>node27</title>
<ellipse cx="1301" cy="208" rx="60" ry="60" style="fill:yellow;stroke:black;"></ellipse>
<g transform="translate(1301,208)">   <circle cx="0" cy="0" r="10"></circle>
   <circle cx="10" cy="-17.320508075689" r="10"></circle>
   <circle cx="-10" cy="-17.320508075689" r="10"></circle>
   <circle cx="-20" cy="0" r="10"></circle>
   <circle cx="-10" cy="17.320508075689" r="10"></circle>
   <circle cx="10" cy="17.320508075689" r="10"></circle>
   <circle cx="20" cy="0" r="10"></circle>
   <circle cx="30" cy="-17.320508075689" r="10"></circle>
   <circle cx="20" cy="-34.641016151378" r="10"></circle>
   <circle cx="0" cy="-34.641016151378" r="10"></circle>
</g></g>
<g id="edge24" class="edge"><title>node9--node27</title>
<path style="fill:none;stroke:black;" d="M1257,40C1263,65 1276,112 1286,150"></path>
</g>
<g id="node28" class="node"><title>node28</title>
<ellipse cx="1097" cy="208" rx="36" ry="36" style="fill:yellow;stroke:black;"></ellipse>
<g transform="translate(1097,208)">   <circle cx="0" cy="0" r="10"></circle>
</g></g>
<g id="edge26" class="edge"><title>node9--node28</title>
<path style="fill:none;stroke:black;" d="M1218,31C1193,40 1161,54 1142,76 1118,103 1107,143 1102,172"></path>
</g>
<g id="node10" class="node"><title>node10</title>
<ellipse cx="2079" cy="22" rx="42" ry="18" style="fill:none;stroke:black;"></ellipse>
<text text-anchor="middle" x="2079" y="27">Nyctixalus</text>
</g>
<g id="node29" class="node"><title>node29</title>
<ellipse cx="2079" cy="208" rx="36" ry="36" style="fill:yellow;stroke:black;"></ellipse>
<g transform="translate(2079,208)">   <circle cx="0" cy="0" r="10"></circle>
   <circle cx="10" cy="-17.320508075689" r="10"></circle>
   <circle cx="-10" cy="-17.320508075689" r="10"></circle>
</g></g>
<g id="edge28" class="edge"><title>node10--node29</title>
<path style="fill:none;stroke:black;" d="M2079,40C2079,71 2079,132 2079,172"></path>
</g>
<g id="node11" class="node"><title>node11</title>
<ellipse cx="2217" cy="22" rx="46" ry="18" style="fill:none;stroke:black;"></ellipse>
<text text-anchor="middle" x="2217" y="27">Polypedates</text>
</g>
<g id="node30" class="node"><title>node30</title>
<ellipse cx="2217" cy="208" rx="84" ry="84" style="fill:yellow;stroke:black;"></ellipse>
<g transform="translate(2217,208)">   <circle cx="0" cy="0" r="10"></circle>
   <circle cx="10" cy="-17.320508075689" r="10"></circle>
   <circle cx="-10" cy="-17.320508075689" r="10"></circle>
   <circle cx="-20" cy="0" r="10"></circle>
   <circle cx="-10" cy="17.320508075689" r="10"></circle>
   <circle cx="10" cy="17.320508075689" r="10"></circle>
   <circle cx="20" cy="0" r="10"></circle>
   <circle cx="30" cy="-17.320508075689" r="10"></circle>
   <circle cx="20" cy="-34.641016151378" r="10"></circle>
   <circle cx="0" cy="-34.641016151378" r="10"></circle>
   <circle cx="-20" cy="-34.641016151378" r="10"></circle>
   <circle cx="-30" cy="-17.320508075689" r="10"></circle>
   <circle cx="-40" cy="0" r="10"></circle>
   <circle cx="-30" cy="17.320508075689" r="10"></circle>
   <circle cx="-20" cy="34.641016151378" r="10"></circle>
   <circle cx="0" cy="34.641016151378" r="10"></circle>
   <circle cx="20" cy="34.641016151378" r="10"></circle>
   <circle cx="30" cy="17.320508075689" r="10"></circle>
   <circle cx="40" cy="0" r="10"></circle>
   <circle cx="50" cy="-17.320508075689" r="10"></circle>
   <circle cx="40" cy="-34.641016151378" r="10"></circle>
   <circle cx="30" cy="-51.961524227066" r="10"></circle>
</g></g>
<g id="edge30" class="edge"><title>node11--node30</title>
<path style="fill:none;stroke:black;" d="M2217,40C2217,60 2217,93 2217,124"></path>
</g>
<g id="node12" class="node"><title>node12</title>
<ellipse cx="2355" cy="22" rx="38" ry="18" style="fill:none;stroke:black;"></ellipse>
<text text-anchor="middle" x="2355" y="27">Liuixalus</text>
</g>
<g id="node31" class="node"><title>node31</title>
<ellipse cx="2355" cy="208" rx="36" ry="36" style="fill:yellow;stroke:black;"></ellipse>
<g transform="translate(2355,208)">   <circle cx="0" cy="0" r="10"></circle>
   <circle cx="10" cy="-17.320508075689" r="10"></circle>
   <circle cx="-10" cy="-17.320508075689" r="10"></circle>
</g></g>
<g id="edge32" class="edge"><title>node12--node31</title>
<path style="fill:none;stroke:black;" d="M2355,40C2355,71 2355,132 2355,172"></path>
</g>
<g id="node13" class="node"><title>node13</title>
<ellipse cx="876" cy="22" rx="39" ry="18" style="fill:none;stroke:black;"></ellipse>
<text text-anchor="middle" x="876" y="27">Philautus</text>
</g>
<g id="edge34" class="edge"><title>node13--node17</title>
<path style="fill:none;stroke:black;" d="M837,24C752,28 552,42 494,76 472,90 453,111 439,133"></path>
</g>
<g id="edge36" class="edge"><title>node13--node21</title>
<path style="fill:none;stroke:black;" d="M841,30C809,38 763,53 728,76 710,89 692,105 677,122"></path>
</g>
<g id="edge38" class="edge"><title>node13--node25</title>
<path style="fill:none;stroke:black;" d="M905,34C924,43 947,57 962,76 984,104 996,144 1002,172"></path>
</g>
<g id="edge40" class="edge"><title>node13--node28</title>
<path style="fill:none;stroke:black;" d="M912,29C958,39 1032,57 1052,76 1078,102 1089,143 1094,172"></path>
</g>
<g id="node32" class="node"><title>node32</title>
<ellipse cx="845" cy="208" rx="108" ry="108" style="fill:yellow;stroke:black;"></ellipse>
<g transform="translate(845,208)">   <circle cx="0" cy="0" r="10"></circle>
   <circle cx="10" cy="-17.320508075689" r="10"></circle>
   <circle cx="-10" cy="-17.320508075689" r="10"></circle>
   <circle cx="-20" cy="0" r="10"></circle>
   <circle cx="-10" cy="17.320508075689" r="10"></circle>
   <circle cx="10" cy="17.320508075689" r="10"></circle>
   <circle cx="20" cy="0" r="10"></circle>
   <circle cx="30" cy="-17.320508075689" r="10"></circle>
   <circle cx="20" cy="-34.641016151378" r="10"></circle>
   <circle cx="0" cy="-34.641016151378" r="10"></circle>
   <circle cx="-20" cy="-34.641016151378" r="10"></circle>
   <circle cx="-30" cy="-17.320508075689" r="10"></circle>
   <circle cx="-40" cy="0" r="10"></circle>
   <circle cx="-30" cy="17.320508075689" r="10"></circle>
   <circle cx="-20" cy="34.641016151378" r="10"></circle>
   <circle cx="0" cy="34.641016151378" r="10"></circle>
   <circle cx="20" cy="34.641016151378" r="10"></circle>
   <circle cx="30" cy="17.320508075689" r="10"></circle>
   <circle cx="40" cy="0" r="10"></circle>
   <circle cx="50" cy="-17.320508075689" r="10"></circle>
   <circle cx="40" cy="-34.641016151378" r="10"></circle>
   <circle cx="30" cy="-51.961524227066" r="10"></circle>
   <circle cx="10" cy="-51.961524227066" r="10"></circle>
   <circle cx="-10" cy="-51.961524227066" r="10"></circle>
   <circle cx="-30" cy="-51.961524227066" r="10"></circle>
   <circle cx="-40" cy="-34.641016151378" r="10"></circle>
   <circle cx="-50" cy="-17.320508075689" r="10"></circle>
   <circle cx="-60" cy="0" r="10"></circle>
   <circle cx="-50" cy="17.320508075689" r="10"></circle>
   <circle cx="-40" cy="34.641016151378" r="10"></circle>
   <circle cx="-30" cy="51.961524227066" r="10"></circle>
   <circle cx="-10" cy="51.961524227066" r="10"></circle>
   <circle cx="10" cy="51.961524227066" r="10"></circle>
   <circle cx="30" cy="51.961524227066" r="10"></circle>
   <circle cx="40" cy="34.641016151378" r="10"></circle>
   <circle cx="50" cy="17.320508075689" r="10"></circle>
   <circle cx="60" cy="0" r="10"></circle>
   <circle cx="70" cy="-17.320508075689" r="10"></circle>
   <circle cx="60" cy="-34.641016151378" r="10"></circle>
   <circle cx="50" cy="-51.961524227066" r="10"></circle>
   <circle cx="40" cy="-69.282032302755" r="10"></circle>
   <circle cx="20" cy="-69.282032302755" r="10"></circle>
   <circle cx="0" cy="-69.282032302755" r="10"></circle>
   <circle cx="-20" cy="-69.282032302755" r="10"></circle>
   <circle cx="-40" cy="-69.282032302755" r="10"></circle>
   <circle cx="-50" cy="-51.961524227066" r="10"></circle>
   <circle cx="-60" cy="-34.641016151378" r="10"></circle>
   <circle cx="-70" cy="-17.320508075689" r="10"></circle>
   <circle cx="-80" cy="0" r="10"></circle>
   <circle cx="-70" cy="17.320508075689" r="10"></circle>
   <circle cx="-60" cy="34.641016151378" r="10"></circle>
   <circle cx="-50" cy="51.961524227066" r="10"></circle>
   <circle cx="-40" cy="69.282032302755" r="10"></circle>
   <circle cx="-20" cy="69.282032302755" r="10"></circle>
   <circle cx="0" cy="69.282032302755" r="10"></circle>
   <circle cx="20" cy="69.282032302755" r="10"></circle>
   <circle cx="40" cy="69.282032302755" r="10"></circle>
</g></g>
<g id="edge42" class="edge"><title>node13--node32</title>
<path style="fill:none;stroke:black;" d="M873,40C870,55 867,77 863,101"></path>
</g>
<g id="node33" class="node"><title>node33</title>
<ellipse cx="1415" cy="208" rx="36" ry="36" style="fill:yellow;stroke:black;"></ellipse>
<g transform="translate(1415,208)">   <circle cx="0" cy="0" r="10"></circle>
</g></g>
<g id="edge44" class="edge"><title>node13--node33</title>
<path style="fill:none;stroke:black;" d="M913,28C939,32 973,37 1003,40 1084,50 1305,26 1370,76 1399,99 1409,141 1413,172"></path>
</g>
<g id="node14" class="node"><title>node14</title>
<ellipse cx="2541" cy="22" rx="49" ry="18" style="fill:none;stroke:black;"></ellipse>
<text text-anchor="middle" x="2541" y="27">Rhacophorus</text>
</g>
<g id="node34" class="node"><title>node34</title>
<ellipse cx="2541" cy="208" rx="132" ry="132" style="fill:yellow;stroke:black;"></ellipse>
<g transform="translate(2541,208)">   <circle cx="0" cy="0" r="10"></circle>
   <circle cx="10" cy="-17.320508075689" r="10"></circle>
   <circle cx="-10" cy="-17.320508075689" r="10"></circle>
   <circle cx="-20" cy="0" r="10"></circle>
   <circle cx="-10" cy="17.320508075689" r="10"></circle>
   <circle cx="10" cy="17.320508075689" r="10"></circle>
   <circle cx="20" cy="0" r="10"></circle>
   <circle cx="30" cy="-17.320508075689" r="10"></circle>
   <circle cx="20" cy="-34.641016151378" r="10"></circle>
   <circle cx="0" cy="-34.641016151378" r="10"></circle>
   <circle cx="-20" cy="-34.641016151378" r="10"></circle>
   <circle cx="-30" cy="-17.320508075689" r="10"></circle>
   <circle cx="-40" cy="0" r="10"></circle>
   <circle cx="-30" cy="17.320508075689" r="10"></circle>
   <circle cx="-20" cy="34.641016151378" r="10"></circle>
   <circle cx="0" cy="34.641016151378" r="10"></circle>
   <circle cx="20" cy="34.641016151378" r="10"></circle>
   <circle cx="30" cy="17.320508075689" r="10"></circle>
   <circle cx="40" cy="0" r="10"></circle>
   <circle cx="50" cy="-17.320508075689" r="10"></circle>
   <circle cx="40" cy="-34.641016151378" r="10"></circle>
   <circle cx="30" cy="-51.961524227066" r="10"></circle>
   <circle cx="10" cy="-51.961524227066" r="10"></circle>
   <circle cx="-10" cy="-51.961524227066" r="10"></circle>
   <circle cx="-30" cy="-51.961524227066" r="10"></circle>
   <circle cx="-40" cy="-34.641016151378" r="10"></circle>
   <circle cx="-50" cy="-17.320508075689" r="10"></circle>
   <circle cx="-60" cy="0" r="10"></circle>
   <circle cx="-50" cy="17.320508075689" r="10"></circle>
   <circle cx="-40" cy="34.641016151378" r="10"></circle>
   <circle cx="-30" cy="51.961524227066" r="10"></circle>
   <circle cx="-10" cy="51.961524227066" r="10"></circle>
   <circle cx="10" cy="51.961524227066" r="10"></circle>
   <circle cx="30" cy="51.961524227066" r="10"></circle>
   <circle cx="40" cy="34.641016151378" r="10"></circle>
   <circle cx="50" cy="17.320508075689" r="10"></circle>
   <circle cx="60" cy="0" r="10"></circle>
   <circle cx="70" cy="-17.320508075689" r="10"></circle>
   <circle cx="60" cy="-34.641016151378" r="10"></circle>
   <circle cx="50" cy="-51.961524227066" r="10"></circle>
   <circle cx="40" cy="-69.282032302755" r="10"></circle>
   <circle cx="20" cy="-69.282032302755" r="10"></circle>
   <circle cx="0" cy="-69.282032302755" r="10"></circle>
   <circle cx="-20" cy="-69.282032302755" r="10"></circle>
   <circle cx="-40" cy="-69.282032302755" r="10"></circle>
   <circle cx="-50" cy="-51.961524227066" r="10"></circle>
   <circle cx="-60" cy="-34.641016151378" r="10"></circle>
   <circle cx="-70" cy="-17.320508075689" r="10"></circle>
   <circle cx="-80" cy="0" r="10"></circle>
   <circle cx="-70" cy="17.320508075689" r="10"></circle>
   <circle cx="-60" cy="34.641016151378" r="10"></circle>
   <circle cx="-50" cy="51.961524227066" r="10"></circle>
   <circle cx="-40" cy="69.282032302755" r="10"></circle>
   <circle cx="-20" cy="69.282032302755" r="10"></circle>
   <circle cx="0" cy="69.282032302755" r="10"></circle>
   <circle cx="20" cy="69.282032302755" r="10"></circle>
   <circle cx="40" cy="69.282032302755" r="10"></circle>
   <circle cx="50" cy="51.961524227066" r="10"></circle>
   <circle cx="60" cy="34.641016151378" r="10"></circle>
   <circle cx="70" cy="17.320508075689" r="10"></circle>
   <circle cx="80" cy="0" r="10"></circle>
   <circle cx="90" cy="-17.320508075689" r="10"></circle>
   <circle cx="80" cy="-34.641016151378" r="10"></circle>
   <circle cx="70" cy="-51.961524227066" r="10"></circle>
   <circle cx="60" cy="-69.282032302755" r="10"></circle>
   <circle cx="50" cy="-86.602540378444" r="10"></circle>
   <circle cx="30" cy="-86.602540378444" r="10"></circle>
   <circle cx="10" cy="-86.602540378444" r="10"></circle>
   <circle cx="-10" cy="-86.602540378444" r="10"></circle>
   <circle cx="-30" cy="-86.602540378444" r="10"></circle>
   <circle cx="-50" cy="-86.602540378444" r="10"></circle>
   <circle cx="-60" cy="-69.282032302755" r="10"></circle>
   <circle cx="-70" cy="-51.961524227066" r="10"></circle>
   <circle cx="-80" cy="-34.641016151378" r="10"></circle>
   <circle cx="-90" cy="-17.320508075689" r="10"></circle>
   <circle cx="-100" cy="0" r="10"></circle>
   <circle cx="-90" cy="17.320508075689" r="10"></circle>
   <circle cx="-80" cy="34.641016151378" r="10"></circle>
   <circle cx="-70" cy="51.961524227066" r="10"></circle>
   <circle cx="-60" cy="69.282032302755" r="10"></circle>
</g></g>
<g id="edge46" class="edge"><title>node14--node34</title>
<path style="fill:none;stroke:black;" d="M2541,40C2541,49 2541,62 2541,76"></path>
</g>
<g id="node15" class="node"><title>node15</title>
<ellipse cx="1472" cy="22" rx="46" ry="18" style="fill:none;stroke:black;"></ellipse>
<text text-anchor="middle" x="1472" y="27">Theloderma</text>
</g>
<g id="edge48" class="edge"><title>node15--node33</title>
<path style="fill:none;stroke:black;" d="M1466,40C1457,71 1438,134 1426,173"></path>
</g>
<g id="node35" class="node"><title>node35</title>
<ellipse cx="1529" cy="208" rx="60" ry="60" style="fill:yellow;stroke:black;"></ellipse>
<g transform="translate(1529,208)">   <circle cx="0" cy="0" r="10"></circle>
   <circle cx="10" cy="-17.320508075689" r="10"></circle>
   <circle cx="-10" cy="-17.320508075689" r="10"></circle>
   <circle cx="-20" cy="0" r="10"></circle>
   <circle cx="-10" cy="17.320508075689" r="10"></circle>
   <circle cx="10" cy="17.320508075689" r="10"></circle>
   <circle cx="20" cy="0" r="10"></circle>
   <circle cx="30" cy="-17.320508075689" r="10"></circle>
   <circle cx="20" cy="-34.641016151378" r="10"></circle>
   <circle cx="0" cy="-34.641016151378" r="10"></circle>
   <circle cx="-20" cy="-34.641016151378" r="10"></circle>
   <circle cx="-30" cy="-17.320508075689" r="10"></circle>
   <circle cx="-40" cy="0" r="10"></circle>
   <circle cx="-30" cy="17.320508075689" r="10"></circle>
   <circle cx="-20" cy="34.641016151378" r="10"></circle>
</g></g>
<g id="edge50" class="edge"><title>node15--node35</title>
<path style="fill:none;stroke:black;" d="M1478,40C1486,65 1500,113 1511,150"></path>
</g>
</g>
</svg>